<svg xmlns="http://www.w3.org/2000/svg" xmlns:xlink="http://www.w3.org/1999/xlink" viewBox="392.63 273.38 68.25 70.07">
  <defs>
    <path id="a" d="M413.55 324.43c0-6.62 5.37-11.98 11.99-11.98 2.54 0-2.39 0 0 0 7 0 12.67 5.66 12.67 12.66v7.31a8.02 8.02 0 008.02 8.02h4.63a7.02 7.02 0 007.02-7.02V304.5c0-5.94-2.81-11.53-7.59-15.07l-16.77-12.44a13.29 13.29 0 00-15.91.05l-16.86 12.67a17.81 17.81 0 00-7.12 14.25v28.9c0 4.19 3.4 7.58 7.59 7.58h4.3a8.03 8.03 0 008.03-8.02v-7.99z"/>
  </defs>
  <use style="fill: var(--icon-color, black); transition: fill .2s linear" xlink:href="#a"/>
</svg>