<svg xmlns="http://www.w3.org/2000/svg" xmlns:xlink="http://www.w3.org/1999/xlink" viewBox="117.45 288.03 40.33 33.06">
  <defs>
    <path id="a" d="M154.78 307.6a4.43 4.43 0 01-4.43 4.43h-21.32a7.57 7.57 0 00-5.85 2.77l-2.31 2.8c-.82.98-2.42.41-2.42-.87v-22.98a4.71 4.71 0 014.71-4.72h27.85a3.77 3.77 0 013.77 3.77v14.8z"/>
    <path id="b" d="M134.43 299.86c0 1.11-.85 2-1.89 2a1.95 1.95 0 01-1.89-2c0-1.1.85-2 1.89-2s1.89.9 1.89 2z"/>
    <path id="c" d="M141.53 299.86c0 1.11-.85 2-1.89 2a1.95 1.95 0 01-1.89-2c0-1.1.85-2 1.89-2s1.89.9 1.89 2z"/>
    <path id="d" d="M148.23 299.86c0 1.11-.85 2-1.89 2a1.95 1.95 0 01-1.89-2c0-1.1.85-2 1.89-2s1.89.9 1.89 2z"/>
  </defs>
  <use style="fill: var(--icon-color, black);transition: fill .2s linear" xlink:href="#a"/>
  <use style="fill: var(--bird-dark, white); transition: fill .2s linear" xlink:href="#b"/>
  <use style="fill: var(--bird-dark, white); transition: fill .2s linear" xlink:href="#c"/>
  <use style="fill: var(--bird-dark, white); transition: fill .2s linear" xlink:href="#d"/>
</svg>