<svg width="24" height="24" viewBox="0 0 24 24" fill="none" xmlns="http://www.w3.org/2000/svg">
<path fill-rule="evenodd" clip-rule="evenodd" d="M1.56209 1.59887C0 3.19776 0 5.7711 0 10.9178V21.3517C0 22.4197 0 22.9537 0.137947 23.2395C0.434 23.8528 1.12793 24.147 1.76097 23.9277C2.05593 23.8254 2.42487 23.4479 3.16272 22.6927H3.16273L3.16276 22.6925C3.76108 22.0802 4.06024 21.7739 4.38989 21.5266C5.08073 21.0085 5.88335 20.6682 6.72983 20.5346C7.13376 20.4709 7.55684 20.4709 8.40299 20.4709H14C18.3833 20.4709 20.5749 20.4709 22.0501 19.2317C22.3201 19.0049 22.5677 18.7515 22.7893 18.4751C24 16.9652 24 14.722 24 10.2354C24 5.74893 24 3.50568 22.7893 1.99582C22.5677 1.7194 22.3201 1.46596 22.0501 1.23912C20.5749 0 18.3833 0 14 0H10.6667C5.63835 0 3.1242 0 1.56209 1.59887ZM6 12.2825C7.10458 12.2825 8 11.366 8 10.2354C8 9.10491 7.10458 8.18836 6 8.18836C4.89543 8.18836 4 9.10491 4 10.2354C4 11.366 4.89543 12.2825 6 12.2825ZM14 10.2354C14 11.366 13.1045 12.2825 12 12.2825C10.8955 12.2825 9.99999 11.366 9.99999 10.2354C9.99999 9.10491 10.8955 8.18836 12 8.18836C13.1045 8.18836 14 9.10491 14 10.2354ZM18 12.2825C19.1045 12.2825 20 11.366 20 10.2354C20 9.10491 19.1045 8.18836 18 8.18836C16.8955 8.18836 16 9.10491 16 10.2354C16 11.366 16.8955 12.2825 18 12.2825Z" style="fill: var(--icon-color, black);transition: fill .2s linear"/>
</svg>
